# xmcd
#
# Track frame offsets: 
#        150
#        14940
#        32490
#        48954
#        64071
#        84135
#        98403
#
# Disc length: 1548 seconds
#
# Revision: 0
# Processed by: cddbd v1.5.2PL0 Copyright (c) Steve Scherf et al.
# Submitted via: ExactAudioCopy v0.99pb5
#
DISCID=49060a07
DTITLE=Steen1 - Salaliittoteoria by Huge L
DYEAR=2009
DGENRE=Rap
TTITLE0=Hyvästä Perheestä
TTITLE1=Jarden Träkki
TTITLE2=Pikkuäpärät
TTITLE3=Pikku Pirihuora
TTITLE4=Sinisiä Rappuja ja Punaisia Hintalappuja
TTITLE5=Vitut Susta
TTITLE6=100% Vihaa ja Väkivaltaa
EXTD=
EXTT0=
EXTT1=
EXTT2=
EXTT3=
EXTT4=
EXTT5=
EXTT6=
PLAYORDER=
